<svg width="340" height="240" viewBox="0 0 340 240" fill="none" xmlns="http://www.w3.org/2000/svg">
  <defs>
    <linearGradient id="bgGradient" x1="0" y1="0" x2="340" y2="240" gradientUnits="userSpaceOnUse">
      <stop stop-color="#6366F1"/>
      <stop offset="1" stop-color="#A855F7"/>
    </linearGradient>
    <linearGradient id="coinGradient" x1="0" y1="0" x2="0" y2="24" gradientUnits="userSpaceOnUse">
      <stop stop-color="#F59E42"/>
      <stop offset="1" stop-color="#F43F5E"/>
    </linearGradient>
    <linearGradient id="walletGradient" x1="0" y1="0" x2="120" y2="80" gradientUnits="userSpaceOnUse">
      <stop stop-color="#06B6D4"/>
      <stop offset="1" stop-color="#6366F1"/>
    </linearGradient>
  </defs>
  <ellipse cx="80" cy="200" rx="70" ry="30" fill="url(#bgGradient)" opacity="0.15"/>
  <ellipse cx="260" cy="60" rx="60" ry="25" fill="url(#bgGradient)" opacity="0.12"/>
  <ellipse cx="220" cy="200" rx="90" ry="35" fill="url(#bgGradient)" opacity="0.10"/>
  <polyline points="40,180 90,120 150,150 210,80 300,120" fill="none" stroke="#06B6D4" stroke-width="4" stroke-linecap="round" stroke-linejoin="round"/>
  <circle cx="40" cy="180" r="6" fill="#06B6D4"/>
  <circle cx="90" cy="120" r="6" fill="#06B6D4"/>
  <circle cx="150" cy="150" r="6" fill="#06B6D4"/>
  <circle cx="210" cy="80" r="6" fill="#06B6D4"/>
  <circle cx="300" cy="120" r="6" fill="#06B6D4"/>
  <rect x="90" y="110" width="120" height="60" rx="16" fill="url(#walletGradient)" stroke="#fff" stroke-width="3"/>
  <rect x="110" y="130" width="80" height="30" rx="8" fill="#fff" opacity="0.15"/>
  <circle cx="200" cy="140" r="6" fill="#fff" opacity="0.5"/>
  <ellipse cx="130" cy="105" rx="14" ry="14" fill="url(#coinGradient)" stroke="#fff" stroke-width="2"/>
  <ellipse cx="170" cy="100" rx="10" ry="10" fill="url(#coinGradient)" stroke="#fff" stroke-width="2"/>
  <ellipse cx="210" cy="110" rx="8" ry="8" fill="url(#coinGradient)" stroke="#fff" stroke-width="2"/>
  <g opacity="0.7">
    <circle cx="120" cy="70" r="2.5" fill="#F59E42"/>
    <circle cx="250" cy="90" r="2.5" fill="#F43F5E"/>
    <circle cx="180" cy="60" r="2.5" fill="#06B6D4"/>
  </g>
</svg> 